<?xml version="1.0" encoding="UTF-8"?>
<!DOCTYPE svg PUBLIC "-//W3C//DTD SVG 1.1//EN" "http://www.w3.org/Graphics/SVG/1.1/DTD/svg11.dtd">
<!-- Creator: CorelDRAW X7 -->
<svg xmlns="http://www.w3.org/2000/svg" xml:space="preserve" width="150px" height="40px" version="1.1" style="shape-rendering:geometricPrecision; text-rendering:geometricPrecision; image-rendering:optimizeQuality; fill-rule:evenodd; clip-rule:evenodd"
viewBox="0 0 150 40"
 xmlns:xlink="http://www.w3.org/1999/xlink">
 <defs>
  <style type="text/css">
   <![CDATA[
    .fil1 {fill:#D4AF37}
    .fil0 {fill:#D4AF37;fill-rule:nonzero}
   ]]>
  </style>
 </defs>
 <g id="Слой_x0020_1">
  <metadata id="CorelCorpID_0Corel-Layer"/>
  <g id="_1025004782864">
   <path class="fil0" d="M49 18c0,-4 -3,-6 -8,-6 -4,0 -7,2 -7,6l0 10c0,4 3,6 7,6 5,0 8,-2 8,-6l0 -10zm-5 10c0,1 -1,1 -3,1 -1,0 -2,0 -2,-1l0 -10c0,0 1,-1 2,-1 2,0 3,1 3,1l0 10zm18 -15l-4 0 0 -4 -1 0 -4 1 0 3 -1 0 0 5 1 0 0 10c0,3 3,6 8,6l2 0 0 -5 -2 0c-2,0 -3,-1 -3,-2l0 -9 4 0 0 -5 0 0zm18 5c0,-4 -3,-6 -7,-6 -5,0 -8,2 -8,6l0 10c0,4 3,6 8,6 4,0 7,-2 7,-6l0 -2 -5 0 0 2c0,1 -1,1 -2,1 -2,0 -3,0 -3,-1l0 -3 10 0 0 -7 0 0 0 0zm-10 0c0,0 1,-1 3,-1 1,0 2,1 2,1l0 3 -5 0 0 -3 0 0 0 0zm19 16l0 -31 -5 0 0 31 5 0zm4 -10l9 0 0 -4 -9 0 0 4zm24 -6l-6 0 0 -12 -5 0 0 28 5 0 0 -12 6 0 0 12 5 0 0 -28 -5 0 0 12zm24 0c0,-4 -3,-6 -8,-6 -5,0 -7,2 -7,6l0 10c0,4 2,6 7,6 5,0 8,-2 8,-6l0 -10zm-5 10c0,1 -1,1 -3,1 -1,0 -1,0 -1,-1l0 -10c0,0 0,-1 1,-1 2,0 3,1 3,1l0 10zm14 6l0 -31 -5 0 0 31 5 0z"/>
   <path class="fil1" d="M2 0l26 0c2,0 2,1 2,2l0 35c0,2 0,3 -2,3l-26 0c-1,0 -2,-1 -2,-3l0 -35c0,-1 1,-2 2,-2zm16 18l-6 0 0 -12 -5 0 0 28 5 0 0 -12 6 0 0 12 5 0 0 -28 -5 0 0 12z"/>
  </g>
 </g>
</svg>
